<svg xmlns="http://www.w3.org/2000/svg" version="1.1" xmlns:xlink="http://www.w3.org/1999/xlink" xmlns:svgjs="http://svgjs.dev/svgjs" width="1500" height="1500" viewBox="0 0 1500 1500"><rect width="1500" height="1500" fill="#990708"></rect><g transform="matrix(0.6666666666666666,0,0,0.6666666666666666,249.39393939393938,625.8125136947542)"><svg viewBox="0 0 396 98" data-background-color="#990708" preserveAspectRatio="xMidYMid meet" height="371" width="1500" xmlns="http://www.w3.org/2000/svg" xmlns:xlink="http://www.w3.org/1999/xlink"><g id="tight-bounds" transform="matrix(1,0,0,1,0.2400000000000091,0.20636249830496922)"><svg viewBox="0 0 395.52 97.58727500339008" height="97.58727500339008" width="395.52"><g><svg viewBox="0 0 543.2427242981482 134.03513635132032" height="97.58727500339008" width="395.52"><g transform="matrix(1,0,0,1,0,18.52439294001605)"><svg viewBox="0 0 395.52 96.98635047128822" height="96.98635047128822" width="395.52"><g id="textblocktransform"><svg viewBox="0 0 395.52 96.98635047128822" height="96.98635047128822" width="395.52" id="textblock"><g><svg viewBox="0 0 395.52 57.34803350618269" height="57.34803350618269" width="395.52"><g transform="matrix(1,0,0,1,0,0)"><svg width="395.52" viewBox="4.4 -35.8 250.67 36.349999999999994" height="57.34803350618269" data-palette-color="#ef9394"><path d="M26.05-16.3L8.95-16.3 8.95 0 4.4 0 4.4-35.8 28.4-35.8 28.4-31.75 8.95-31.75 8.95-20.35 26.05-20.35 26.05-16.3ZM33.25-25.7L37.3-25.7 37.3 0 33.25 0 33.25-25.7ZM35.35-35.75L35.35-35.75Q36.4-35.75 37.12-35.02 37.85-34.3 37.85-33.3L37.85-33.3Q37.85-32.25 37.12-31.53 36.4-30.8 35.35-30.8L35.35-30.8Q34.35-30.8 33.62-31.53 32.9-32.25 32.9-33.3L32.9-33.3Q32.9-34.3 33.62-35.02 34.35-35.75 35.35-35.75ZM49.15-25.7L54.4-25.7 54.4-22.4 49.15-22.4 49.15-5.3Q49.15-4.4 49.77-3.78 50.4-3.15 51.4-3.15L51.4-3.15Q52.35-3.15 54.3-3.6L54.3-3.6 54.75 0Q51.65 0.55 50.05 0.55L50.05 0.55Q45.1 0.55 45.1-3.5L45.1-3.5 45.1-22.4 41.6-22.4 41.6-25.7 45.1-25.7 45.1-30.95 49.15-32.8 49.15-25.7ZM59.19 0L59.19-25.7 62.99-25.7 62.99-21.35Q66.09-26.25 71.49-26.25L71.49-26.25Q75.24-26.25 77.44-24.38 79.64-22.5 79.64-19.35L79.64-19.35 79.64 0 75.59 0 75.59-17.7Q75.59-20 74.17-21.35 72.74-22.7 70.29-22.7L70.29-22.7Q67.09-22.7 65.19-20.35 63.29-18 63.29-14.1L63.29-14.1 63.29 0 59.19 0ZM108.19-11.8L108.19-11.65 89.24-11.65Q89.29-8.35 90.64-6.4L90.64-6.4Q92.79-3.25 96.84-3.25L96.84-3.25Q101.84-3.25 103.59-8L103.59-8 107.69-8Q106.89-3.95 103.99-1.7 101.09 0.55 96.69 0.55L96.69 0.55Q90.84 0.55 87.74-3.45L87.74-3.45Q84.99-6.95 84.99-12.7L84.99-12.7Q84.99-19.35 88.59-23.05L88.59-23.05Q91.74-26.25 96.74-26.25L96.74-26.25Q100.39-26.25 103.17-24.5 105.94-22.75 107.14-19.7L107.14-19.7Q108.19-17.1 108.19-11.8L108.19-11.8ZM89.39-15L103.79-15Q103.79-18.35 101.82-20.43 99.84-22.5 96.74-22.5L96.74-22.5Q93.59-22.5 91.62-20.48 89.64-18.45 89.39-15L89.39-15ZM132.04-18.65L132.04-18.65 127.54-18.65Q127.34-22.5 122.39-22.5L122.39-22.5Q119.84-22.5 118.36-21.53 116.89-20.55 116.89-18.9L116.89-18.9Q116.89-16.4 121.64-15.3L121.64-15.3 125.59-14.4Q129.44-13.5 131.14-11.85 132.84-10.2 132.84-7.35L132.84-7.35Q132.84-3.7 129.99-1.58 127.14 0.55 122.29 0.55L122.29 0.55Q116.99 0.55 114.24-1.95L114.24-1.95Q111.94-4 111.79-7.4L111.79-7.4 116.44-7.4Q116.84-5.65 117.54-4.85L117.54-4.85Q118.89-3.25 122.59-3.25L122.59-3.25Q125.34-3.25 126.96-4.28 128.59-5.3 128.59-7L128.59-7Q128.59-9.55 124.64-10.5L124.64-10.5 120.79-11.4Q116.39-12.45 114.64-13.9L114.64-13.9Q112.64-15.55 112.64-18.65L112.64-18.65Q112.64-22.15 115.31-24.2 117.99-26.25 122.49-26.25L122.49-26.25Q127.19-26.25 129.79-23.9L129.79-23.9Q132.04-21.85 132.04-18.65ZM156.59-18.65L156.59-18.65 152.09-18.65Q151.89-22.5 146.94-22.5L146.94-22.5Q144.39-22.5 142.91-21.53 141.44-20.55 141.44-18.9L141.44-18.9Q141.44-16.4 146.19-15.3L146.19-15.3 150.14-14.4Q153.99-13.5 155.69-11.85 157.39-10.2 157.39-7.35L157.39-7.35Q157.39-3.7 154.54-1.58 151.69 0.55 146.84 0.55L146.84 0.55Q141.54 0.55 138.79-1.95L138.79-1.95Q136.49-4 136.34-7.4L136.34-7.4 140.99-7.4Q141.39-5.65 142.09-4.85L142.09-4.85Q143.44-3.25 147.14-3.25L147.14-3.25Q149.89-3.25 151.51-4.28 153.14-5.3 153.14-7L153.14-7Q153.14-9.55 149.19-10.5L149.19-10.5 145.34-11.4Q140.94-12.45 139.19-13.9L139.19-13.9Q137.19-15.55 137.19-18.65L137.19-18.65Q137.19-22.15 139.86-24.2 142.54-26.25 147.04-26.25L147.04-26.25Q151.74-26.25 154.34-23.9L154.34-23.9Q156.59-21.85 156.59-18.65ZM185.48-16.3L168.38-16.3 168.38 0 163.83 0 163.83-35.8 187.83-35.8 187.83-31.75 168.38-31.75 168.38-20.35 185.48-20.35 185.48-16.3ZM192.68-25.7L196.73-25.7 196.73 0 192.68 0 192.68-25.7ZM194.78-35.75L194.78-35.75Q195.83-35.75 196.56-35.02 197.28-34.3 197.28-33.3L197.28-33.3Q197.28-32.25 196.56-31.53 195.83-30.8 194.78-30.8L194.78-30.8Q193.78-30.8 193.06-31.53 192.33-32.25 192.33-33.3L192.33-33.3Q192.33-34.3 193.06-35.02 193.78-35.75 194.78-35.75ZM203.73 0L203.73-25.7 207.53-25.7 207.53-21Q209.78-26.3 214.63-26.3L214.63-26.3Q215.23-26.3 216.08-26.15L216.08-26.15 216.08-21.95Q212.08-21.9 210.58-20.8L210.58-20.8Q207.83-18.8 207.83-13.35L207.83-13.35 207.83 0 203.73 0ZM238.38-18.65L238.38-18.65 233.88-18.65Q233.68-22.5 228.73-22.5L228.73-22.5Q226.18-22.5 224.7-21.53 223.23-20.55 223.23-18.9L223.23-18.9Q223.23-16.4 227.98-15.3L227.98-15.3 231.93-14.4Q235.78-13.5 237.48-11.85 239.18-10.2 239.18-7.35L239.18-7.35Q239.18-3.7 236.33-1.58 233.48 0.55 228.63 0.55L228.63 0.55Q223.33 0.55 220.58-1.95L220.58-1.95Q218.28-4 218.13-7.4L218.13-7.4 222.78-7.4Q223.18-5.65 223.88-4.85L223.88-4.85Q225.23-3.25 228.93-3.25L228.93-3.25Q231.68-3.25 233.3-4.28 234.93-5.3 234.93-7L234.93-7Q234.93-9.55 230.98-10.5L230.98-10.5 227.13-11.4Q222.73-12.45 220.98-13.9L220.98-13.9Q218.98-15.55 218.98-18.65L218.98-18.65Q218.98-22.15 221.65-24.2 224.33-26.25 228.83-26.25L228.83-26.25Q233.53-26.25 236.13-23.9L236.13-23.9Q238.38-21.85 238.38-18.65ZM249.47-25.7L254.72-25.7 254.72-22.4 249.47-22.4 249.47-5.3Q249.47-4.4 250.1-3.78 250.72-3.15 251.72-3.15L251.72-3.15Q252.67-3.15 254.62-3.6L254.62-3.6 255.07 0Q251.97 0.55 250.37 0.55L250.37 0.55Q245.42 0.55 245.42-3.5L245.42-3.5 245.42-22.4 241.92-22.4 241.92-25.7 245.42-25.7 245.42-30.95 249.47-32.8 249.47-25.7Z" opacity="1" transform="matrix(1,0,0,1,0,0)" fill="#ef9394" class="wordmark-text-0" data-fill-palette-color="primary" id="text-0"></path></svg></g></svg></g><g transform="matrix(1,0,0,1,163.310208,70.88652786418827)"><svg viewBox="0 0 232.209792 26.099822607099945" height="26.099822607099945" width="232.209792"><g transform="matrix(1,0,0,1,0,0)"><svg width="232.209792" viewBox="3.86 -37.94 446.97999999999996 50.239999999999995" height="26.099822607099945" data-palette-color="#ef9394"><path d="M28.86-32.67L24.8-29.05Q23.63-30.47 22.12-31.1 20.61-31.74 18.99-31.74L18.99-31.74 18.8-31.74 18.8-36.57 18.85-36.57Q21.78-36.57 24.32-35.6 26.86-34.62 28.86-32.67L28.86-32.67ZM3.86-18.16L3.86-18.16Q3.86-22.36 4.83-25.61 5.81-28.86 7.52-31.13 9.23-33.4 11.62-34.72 14.01-36.04 16.8-36.38L16.8-36.38 16.8-31.49Q15.33-31.1 14.09-30.18 12.84-29.25 11.89-27.61 10.94-25.98 10.4-23.66 9.86-21.34 9.81-18.16L9.81-18.16Q9.86-14.99 10.4-12.6 10.94-10.21 11.89-8.47 12.84-6.74 14.09-5.71 15.33-4.69 16.8-4.3L16.8-4.3 16.8 0.15Q14.01-0.2 11.62-1.54 9.23-2.88 7.52-5.18 5.81-7.47 4.83-10.72 3.86-13.96 3.86-18.16ZM18.8-18.55L30.71-18.55 30.71-4.64Q29.59-3.22 28.2-2.32 26.81-1.42 25.27-0.83 23.73-0.24 22.09 0 20.46 0.24 18.85 0.24L18.85 0.24 18.8 0.24 18.8-4.05Q19.38-4.05 20.24-4.13 21.09-4.2 22-4.37 22.9-4.54 23.71-4.83 24.51-5.13 24.9-5.66L24.9-5.66 24.9-14.55 18.8-14.55 18.8-18.55ZM51.66-23.19L51.66-27.78Q54.29-27.54 56.42-26.37 58.54-25.2 60.06-23.34 61.57-21.48 62.38-19.09 63.18-16.7 63.18-14.11L63.18-14.11Q63.18-12.94 63.03-11.77L63.03-11.77 46.29-11.77 46.29-16.06 57.57-16.06Q57.57-17.33 57.15-18.51 56.74-19.68 55.93-20.68 55.12-21.68 54.05-22.36 52.98-23.05 51.66-23.19L51.66-23.19ZM51.46-4.59L51.46-4.59Q52-4.59 52.81-4.71 53.61-4.83 54.51-5.15 55.42-5.47 56.32-5.96 57.22-6.45 57.91-7.13L57.91-7.13 60.06-3.86Q58.44-1.86 56.3-0.83 54.15 0.2 50.83 0.2L50.83 0.2Q48.14 0.2 45.8-0.9 43.45-2 41.79-3.91 40.13-5.81 39.16-8.35 38.18-10.89 38.18-13.82L38.18-13.82Q38.18-16.6 39.08-19.09 39.99-21.58 41.55-23.46 43.11-25.34 45.19-26.51 47.26-27.69 49.66-27.83L49.66-27.83 49.66-23.14Q47.85-22.8 46.68-21.68 45.51-20.56 44.85-19.12 44.19-17.68 43.92-16.16 43.65-14.65 43.65-13.57L43.65-13.57Q43.65-11.67 44.11-10.03 44.58-8.4 45.55-7.2 46.53-6.01 47.97-5.3 49.41-4.59 51.46-4.59ZM79.15-23.54L79.15-8.35Q79.15-6.69 79.58-5.76 80.02-4.83 80.83-4.35 81.64-3.86 82.64-3.74 83.64-3.61 84.76-3.61L84.76-3.61 84.76 0Q84.13 0.1 83.49 0.15L83.49 0.15Q82.95 0.2 82.2 0.22 81.44 0.24 80.71 0.24L80.71 0.24Q79.98 0.24 79.22 0.2 78.46 0.15 77.92 0.05L77.92 0.05Q76.26-0.24 75.34-1.39 74.41-2.54 73.95-3.93 73.48-5.32 73.36-6.64 73.24-7.96 73.24-8.69L73.24-8.69 73.24-23.54 69.62-23.54 69.62-27.54 73.24-27.54 73.24-35.35 79.15-35.35 79.15-27.54 83.54-27.54 83.54-23.54 79.15-23.54ZM105.26 0L105.26-35.99 111.12-35.99 111.12 0 105.26 0ZM121.47-14.16L129.68 0 123.48 0 116.69-13.04Q116.54-13.04 116.37-13.01 116.2-12.99 115.86-12.99 115.52-12.99 114.86-12.99 114.2-12.99 113.12-12.99L113.12-12.99 113.12-17.29 116.45-17.29Q117.52-17.29 118.59-17.65 119.67-18.02 120.55-18.85 121.43-19.68 121.96-21.17 122.5-22.66 122.5-24.85L122.5-24.85Q122.5-25.73 122.26-26.88 122.01-28.03 121.25-29.08 120.5-30.13 119.13-30.83 117.76-31.54 115.52-31.54L115.52-31.54 113.12-31.54 113.12-35.99 115.62-35.99Q117.91-35.99 120.16-35.25 122.4-34.52 124.18-33.06 125.97-31.59 127.07-29.52 128.16-27.44 128.16-24.85L128.16-24.85Q128.16-20.95 126.36-18.21 124.55-15.48 121.47-14.16L121.47-14.16ZM150.09-23.19L150.09-27.78Q152.72-27.54 154.85-26.37 156.97-25.2 158.48-23.34 160-21.48 160.8-19.09 161.61-16.7 161.61-14.11L161.61-14.11Q161.61-12.94 161.46-11.77L161.46-11.77 144.71-11.77 144.71-16.06 155.99-16.06Q155.99-17.33 155.58-18.51 155.16-19.68 154.36-20.68 153.55-21.68 152.48-22.36 151.4-23.05 150.09-23.19L150.09-23.19ZM149.89-4.59L149.89-4.59Q150.43-4.59 151.23-4.71 152.04-4.83 152.94-5.15 153.84-5.47 154.75-5.96 155.65-6.45 156.34-7.13L156.34-7.13 158.48-3.86Q156.87-1.86 154.72-0.83 152.58 0.2 149.26 0.2L149.26 0.2Q146.57 0.2 144.23-0.9 141.88-2 140.22-3.91 138.56-5.81 137.59-8.35 136.61-10.89 136.61-13.82L136.61-13.82Q136.61-16.6 137.51-19.09 138.42-21.58 139.98-23.46 141.54-25.34 143.62-26.51 145.69-27.69 148.08-27.83L148.08-27.83 148.08-23.14Q146.28-22.8 145.1-21.68 143.93-20.56 143.27-19.12 142.61-17.68 142.35-16.16 142.08-14.65 142.08-13.57L142.08-13.57Q142.08-11.67 142.54-10.03 143.01-8.4 143.98-7.2 144.96-6.01 146.4-5.3 147.84-4.59 149.89-4.59ZM174.5-8.3L174.5-8.3Q174.5-6.1 175.4-5.03 176.3-3.96 178.01-3.76L178.01-3.76 178.01 0.2Q177.82 0.24 177.38 0.24L177.38 0.24Q175.72 0.24 174.18-0.2 172.64-0.63 171.47-1.61 170.3-2.59 169.64-4.2 168.98-5.81 168.98-8.15L168.98-8.15Q168.98-10.4 169.93-12.04 170.88-13.67 172.37-14.72 173.86-15.77 175.77-16.28 177.67-16.8 179.62-16.8L179.62-16.8 181.77-16.8 181.77-13.33 180.7-13.33Q179.72-13.33 178.65-13.13 177.57-12.94 176.65-12.4 175.72-11.87 175.11-10.86 174.5-9.86 174.5-8.3ZM189.68-8.54L189.68-8.15Q189.68-7.76 189.73-7.01 189.78-6.25 189.93-5.47 190.07-4.69 190.39-4.05 190.71-3.42 191.24-3.22L191.24-3.22 189.68 0.05Q189.05 0.05 188.34-0.24 187.63-0.54 186.97-1.07 186.31-1.61 185.85-2.27 185.39-2.93 185.14-3.71L185.14-3.71Q184.65-2.49 183.21-1.54 181.77-0.59 180.01-0.15L180.01-0.15 180.01-3.86Q181.19-4.1 182.14-4.81 183.09-5.52 183.77-6.49L183.77-6.49 183.77-16.8Q183.77-19.19 183.53-20.61 183.29-22.02 182.7-22.68 182.11-23.34 181.26-23.51 180.4-23.68 179.23-23.68L179.23-23.68Q178.16-23.68 177.21-23.41 176.25-23.14 175.45-22.78 174.64-22.41 174.03-21.97 173.42-21.53 173.13-21.29L173.13-21.29 170.93-24.66Q171.42-25.2 172.4-25.76 173.37-26.32 174.64-26.76 175.91-27.2 177.4-27.47 178.89-27.73 180.5-27.73L180.5-27.73Q181.97-27.73 183.36-27.44 184.75-27.15 185.9-26.46 187.05-25.78 187.9-24.63 188.75-23.49 189.1-21.78L189.1-21.78Q189.44-20.07 189.56-18.33 189.68-16.6 189.68-14.89L189.68-14.89 189.68-8.54ZM216-37.94L221.96-37.94 221.96 0 216.34 0 216-3.27 216-37.94ZM197.25-14.16L197.25-14.16Q197.25-17.97 198.3-20.56 199.35-23.14 201.01-24.76 202.67-26.37 204.69-27.08 206.72-27.78 208.67-27.78L208.67-27.78Q210.19-27.78 211.55-27.44 212.92-27.1 214-26.46L214-26.46 214-21.29Q213.17-22.17 212.14-22.71 211.12-23.24 209.85-23.24L209.85-23.24Q208.33-23.24 207.16-22.49 205.99-21.73 205.18-20.41 204.38-19.09 203.94-17.38 203.5-15.67 203.5-13.72L203.5-13.72Q203.5-11.77 203.99-10.08 204.47-8.4 205.3-7.13 206.13-5.86 207.33-5.13 208.53-4.39 209.94-4.39L209.94-4.39Q212.34-4.39 214-6.3L214-6.3 214-1.22Q212.82-0.59 211.29-0.17 209.75 0.24 208.04 0.24L208.04 0.24Q206.09 0.24 204.21-0.46 202.33-1.17 200.86-2.78L200.86-2.78Q199.01-4.88 198.13-7.98 197.25-11.08 197.25-14.16ZM250.91-27.54L256.86-27.54Q254.18-20.36 252.08-14.82 249.98-9.28 248.42-5.1 246.86-0.93 245.66 1.95 244.46 4.83 243.46 6.76 242.46 8.69 241.58 9.79 240.7 10.89 239.77 11.47 238.85 12.06 237.75 12.18 236.65 12.3 235.23 12.3L235.23 12.3Q234.79 12.3 234.21 12.18 233.62 12.06 233.06 11.89 232.5 11.72 232.06 11.55 231.62 11.38 231.47 11.33L231.47 11.33Q231.67 10.45 231.86 9.67L231.86 9.67Q232.01 8.98 232.18 8.37 232.35 7.76 232.45 7.52L232.45 7.52Q232.84 7.52 233.65 7.76 234.45 8.01 234.84 8.01L234.84 8.01Q235.62 8.01 236.23 7.93 236.85 7.86 237.33 7.5 237.82 7.13 238.26 6.42 238.7 5.71 239.24 4.39L239.24 4.39 241.09 0 250.91-27.54ZM242.07-7.37L240.07-2.59 229.81-27.54 235.72-27.54 242.75-9.03 242.07-7.37ZM284.35-23.54L284.35-8.35Q284.35-6.69 284.79-5.76 285.23-4.83 286.03-4.35 286.84-3.86 287.84-3.74 288.84-3.61 289.97-3.61L289.97-3.61 289.97 0Q289.33 0.1 288.7 0.15L288.7 0.15Q288.16 0.2 287.4 0.22 286.64 0.24 285.91 0.24L285.91 0.24Q285.18 0.24 284.42 0.2 283.67 0.15 283.13 0.05L283.13 0.05Q281.47-0.24 280.54-1.39 279.61-2.54 279.15-3.93 278.69-5.32 278.56-6.64 278.44-7.96 278.44-8.69L278.44-8.69 278.44-23.54 274.83-23.54 274.83-27.54 278.44-27.54 278.44-35.35 284.35-35.35 284.35-27.54 288.74-27.54 288.74-23.54 284.35-23.54ZM309.84-23.1L309.84-27.69Q312.52-27.54 314.72-26.39 316.92-25.24 318.41-23.36 319.89-21.48 320.72-18.99 321.55-16.5 321.55-13.67L321.55-13.67Q321.55-10.84 320.7-8.37 319.85-5.91 318.33-4.08 316.82-2.25 314.62-1.12 312.42 0 309.84 0.2L309.84 0.2 309.84-4.49Q312.28-5.03 313.82-7.57 315.35-10.11 315.35-13.67L315.35-13.67Q315.35-15.48 314.99-17.07 314.62-18.65 313.89-19.92 313.16-21.19 312.13-22.02 311.11-22.85 309.84-23.1L309.84-23.1ZM296.21-13.77L296.21-13.77Q296.21-16.6 297.04-19.04 297.87-21.48 299.41-23.32 300.95-25.15 303.1-26.27 305.25-27.39 307.83-27.64L307.83-27.64 307.83-23.1Q305.39-22.56 303.93-20.02 302.46-17.48 302.46-13.92L302.46-13.92Q302.46-12.11 302.83-10.5 303.2-8.89 303.88-7.62 304.56-6.35 305.56-5.52 306.56-4.69 307.83-4.49L307.83-4.49 307.83 0.2Q305.15 0 303-1.15 300.85-2.29 299.34-4.15 297.82-6.01 297.02-8.5 296.21-10.99 296.21-13.77ZM360.07-18.95L360.07-18.95Q361.2-18.8 362.47-18.21 363.74-17.63 364.84-16.55 365.93-15.48 366.67-13.94 367.4-12.4 367.4-10.4L367.4-10.4Q367.4-7.96 366.67-6.2 365.93-4.44 364.84-3.3 363.74-2.15 362.44-1.49 361.15-0.83 359.95-0.49 358.76-0.15 357.83-0.07 356.9 0 356.61 0L356.61 0 350.94 0 350.94-4.3 356.27-4.3Q358.85-4.3 360.32-5.96 361.78-7.62 361.78-10.4L361.78-10.4Q361.78-13.04 360.27-14.84 358.76-16.65 355.83-16.65L355.83-16.65 350.94-16.65 350.94-20.61 353.29-20.61Q354.36-20.61 355.49-20.65 356.61-20.7 357.58-21.19 358.56-21.68 359.17-22.85 359.78-24.02 359.78-26.22L359.78-26.22Q359.78-27.1 359.54-28.05 359.29-29 358.56-29.79 357.83-30.57 356.46-31.05 355.09-31.54 352.85-31.54L352.85-31.54 350.94-31.54 350.94-35.99 353.43-35.99Q355.73-35.99 357.88-35.45 360.03-34.91 361.69-33.74 363.35-32.57 364.32-30.69 365.3-28.81 365.3-26.22L365.3-26.22Q365.3-24.71 364.81-23.46 364.32-22.22 363.59-21.29 362.86-20.36 361.91-19.75 360.95-19.14 360.07-18.95ZM343.08 0L343.08-35.99 348.94-35.99 348.94 0 343.08 0ZM381.12-27.54L381.12-12.55Q381.12-10.84 381.26-9.35 381.41-7.86 381.9-6.74 382.39-5.62 383.36-4.93 384.34-4.25 385.95-4.25L385.95-4.25Q386.59-4.25 387.76-4.44 388.93-4.64 390-5.08L390-5.08 390-1.46Q388.73-0.78 387.25-0.27 385.76 0.24 384.29 0.24L384.29 0.24Q383.12 0.24 382.19 0.02 381.26-0.2 380.46-0.66 379.65-1.12 378.92-1.71 378.19-2.29 377.46-3.03L377.46-3.03Q376.63-3.86 376.14-4.96 375.65-6.05 375.43-7.25 375.21-8.45 375.18-9.67 375.16-10.89 375.16-12.06L375.16-12.06 375.16-27.54 381.12-27.54ZM392.01-27.54L397.96-27.54 397.96 0 392.64 0 392.01-2.83 392.01-27.54ZM406.26-27.54L411.53-27.54 412.17-24.71 412.17-9.77 412.17-9.67 412.17 0 406.26 0 406.26-27.54ZM414.17-21.34L414.17-26.32Q415.39-27 417.1-27.37 418.81-27.73 421.74-27.73L421.74-27.73 421.74-21.58Q420.37-21.97 418.42-22.02L418.42-22.02Q417.35-22.02 416.25-21.85 415.15-21.68 414.17-21.34L414.17-21.34ZM428.04-27.54L433.31-27.54 433.94-24.76 433.94 0 428.04 0 428.04-27.54ZM448.54-24.51L448.54-24.51Q449.37-23.68 449.84-22.58 450.3-21.48 450.52-20.29 450.74-19.09 450.79-17.87 450.84-16.65 450.84-15.48L450.84-15.48 450.84-0.98 450.84 0 444.88 0 444.88-14.99Q444.88-16.65 444.74-18.16 444.59-19.68 444.05-20.85 443.51-22.02 442.59-22.68 441.66-23.34 440-23.34L440-23.34Q439.32-23.34 438.17-23.12 437.02-22.9 435.95-22.41L435.95-22.41 435.95-26.17Q437.26-26.86 438.8-27.34 440.34-27.83 441.81-27.83L441.81-27.83Q444-27.83 445.52-26.93 447.03-26.03 448.54-24.51Z" opacity="1" transform="matrix(1,0,0,1,0,0)" fill="#ef9394" class="slogan-text-1" data-fill-palette-color="secondary" id="text-1"></path></svg></g></svg></g></svg></g></svg></g><g transform="matrix(1,0,0,1,409.0584943580056,0)"><svg viewBox="0 0 134.1842299401427 134.03513635132032" height="134.03513635132032" width="134.1842299401427"><g><svg xmlns="http://www.w3.org/2000/svg" xmlns:xlink="http://www.w3.org/1999/xlink" version="1.1" x="0" y="0" viewBox="5 5 90 89.9" style="enable-background:new 0 0 100 100;" xml:space="preserve" height="134.03513635132032" width="134.1842299401427" class="icon-icon-0" data-fill-palette-color="accent" id="icon-0"><path d="M80.7 10.9c-2.1 0-4.3 0.8-5.9 2.5L74 14.2l-6.6-6.6C65.6 5.8 63.4 5 61.2 5 59 5 56.7 5.8 55 7.5c-0.8 0.8-1.4 1.7-1.8 2.7-1.7-1.6-3.9-2.4-6-2.4-2.2 0-4.5 0.8-6.2 2.5-1.7 1.7-2.6 4-2.5 6.2 0 2.2 0.8 4.5 2.5 6.2l11.2 11.2 1.1 1.1L34.9 53.3l-1.1-1.1L22.7 41c-1.7-1.7-4-2.6-6.2-2.5-2.2 0-4.5 0.8-6.2 2.5-1.7 1.7-2.5 3.9-2.5 6.2 0 2.2 0.8 4.3 2.4 6-1 0.4-1.9 1-2.7 1.8C5.8 56.7 5 59 5 61.2c0 2.2 0.8 4.5 2.5 6.2l6.6 6.6-0.8 0.8c-1.6 1.6-2.5 3.8-2.5 5.9 0 2.1 0.8 4.3 2.5 5.9 1.6 1.6 3.8 2.5 5.9 2.5 2.1 0 4.3-0.8 5.9-2.5l0.8-0.8 6.6 6.6c0 0 0 0 0 0 1.7 1.7 3.9 2.5 6.1 2.5 2.2 0 4.5-0.8 6.2-2.5 0.8-0.8 1.4-1.7 1.8-2.7 1.7 1.6 3.9 2.4 6 2.4 2.2 0 4.5-0.8 6.2-2.5 1.7-1.7 2.5-3.9 2.5-6.2 0-2.2-0.8-4.5-2.5-6.2L47.8 66.2c0 0 0 0 0 0l-1-1 18.4-18.4 1 1c0 0 0 0 0 0L77.3 59c1.7 1.7 3.9 2.5 6.2 2.5 2.2 0 4.5-0.8 6.2-2.5 1.7-1.7 2.5-3.9 2.5-6.2 0-2.2-0.8-4.3-2.4-6 1-0.4 1.9-1 2.7-1.8 1.7-1.7 2.5-3.9 2.5-6.2 0-2.2-0.8-4.4-2.5-6.1 0 0 0 0 0 0L85.8 26l0.8-0.8c1.6-1.6 2.5-3.8 2.5-5.9 0-2.1-0.8-4.3-2.5-5.9C85 11.7 82.9 10.9 80.7 10.9zM22.1 81.9l-0.8 0.8c-0.6 0.6-1.3 0.8-2 0.8-0.7 0-1.4-0.3-2-0.8v0c-0.6-0.6-0.8-1.2-0.8-2 0-0.7 0.3-1.4 0.8-2l0.8-0.8L22.1 81.9zM41 84.1c0.6 0.6 0.9 1.4 0.9 2.2 0 0.8-0.3 1.6-0.9 2.2-0.6 0.6-1.4 0.9-2.2 0.9-0.8 0-1.6-0.3-2.2-0.9L20.1 72l-8.6-8.6c-0.6-0.6-0.9-1.4-0.9-2.2 0-0.8 0.3-1.6 0.9-2.2 0.6-0.6 1.4-0.9 2.2-0.9 0.8 0 1.6 0.3 2.2 0.9L41 84.1zM29.9 56.2C29.9 56.2 29.9 56.2 29.9 56.2l10.9 10.9 3 3L55 81.3c0.6 0.6 0.9 1.4 0.9 2.2 0 0.8-0.3 1.6-0.9 2.2-0.6 0.6-1.4 0.9-2.2 0.9-0.8 0-1.6-0.3-2.2-0.9L19.9 55l-5.6-5.6c-0.6-0.6-0.9-1.4-0.9-2.2 0-0.8 0.3-1.6 0.9-2.2 0.6-0.6 1.4-0.9 2.2-0.9 0.8 0 1.6 0.3 2.2 0.9L29.9 56.2zM61.2 42.8L42.8 61.2l-3.9-3.9 18.4-18.4L61.2 42.8zM55 19.9l30.7 30.7c0.6 0.6 0.9 1.4 0.9 2.2 0 0.8-0.3 1.6-0.9 2.2-0.6 0.6-1.4 0.9-2.2 0.9-0.8 0-1.6-0.3-2.2-0.9L70.1 43.8l-3-3L56.2 29.9c0 0 0 0 0 0L45 18.7c-0.6-0.6-0.9-1.4-0.9-2.2 0-0.8 0.3-1.6 0.9-2.2 0.6-0.6 1.4-0.9 2.2-0.9 0.8 0 1.6 0.3 2.2 0.9L55 19.9zM72 20.1l16.5 16.5c0.6 0.6 0.9 1.4 0.9 2.2 0 0.8-0.3 1.6-0.9 2.2-0.6 0.6-1.4 0.9-2.2 0.9-0.8 0-1.6-0.3-2.2-0.9L59 15.9c-0.6-0.6-0.9-1.4-0.9-2.2 0-0.8 0.3-1.6 0.9-2.2 0.6-0.6 1.4-0.9 2.2-0.9 0.8 0 1.6 0.3 2.2 0.9L72 20.1zM83.5 19.3c0 0.7-0.3 1.4-0.8 2l-0.8 0.8-3.9-3.9 0.8-0.8c0.6-0.6 1.3-0.8 2-0.8 0.7 0 1.4 0.3 2 0.8h0C83.2 17.9 83.5 18.6 83.5 19.3z" fill="#f3f2ee" data-fill-palette-color="accent"></path></svg></g></svg></g></svg></g><defs></defs></svg><rect width="395.52" height="97.58727500339008" fill="none" stroke="none" visibility="hidden"></rect></g></svg></g></svg>